<svg width="32" height="32" viewBox="0 0 32 32" fill="none" xmlns="http://www.w3.org/2000/svg">
<g clip-path="url(#clip0_2_270)">
<rect width="32" height="32" fill="white"/>
<rect y="28" width="4" height="4" fill="white"/>
<rect x="4" y="28" width="4" height="4" fill="#67749D"/>
<rect y="24" width="4" height="4" fill="white"/>
<rect x="4" y="24" width="4" height="4" fill="#F0AF59"/>
<rect y="20" width="4" height="4" fill="white"/>
<rect x="4" y="20" width="4" height="4" fill="#FFD405"/>
<rect y="16" width="4" height="4" fill="#F3AF49"/>
<rect x="4" y="16" width="4" height="4" fill="#FFFADE"/>
<rect y="12" width="4" height="4" fill="#E3390F"/>
<rect x="4" y="12" width="4" height="4" fill="#D6861E"/>
<rect y="8" width="4" height="4" fill="#E3390F"/>
<rect x="4" y="8" width="4" height="4" fill="#DEAFA2"/>
<rect y="4" width="4" height="4" fill="#E3390F"/>
<rect x="4" y="4" width="4" height="4" fill="#FFF3B2"/>
<rect width="4" height="4" fill="#E3390F"/>
<rect x="4" width="4" height="4" fill="#F9D057"/>
<rect x="8" y="28" width="4" height="4" fill="#DEAFA2"/>
<rect x="8" y="20" width="4" height="4" fill="#F0AF59"/>
<rect x="12" y="20" width="4" height="4" fill="#E64B38"/>
<rect x="16" y="20" width="4" height="4" fill="#E64B38"/>
<rect x="20" y="20" width="4" height="4" fill="#DACF72"/>
<rect x="24" y="20" width="4" height="4" fill="#FFA201"/>
<rect x="8" y="24" width="4" height="4" fill="#FFD405"/>
<rect x="8" y="12" width="4" height="4" fill="#FFFADE"/>
<rect x="8" y="16" width="4" height="4" fill="#ED763B"/>
<rect x="12" y="16" width="4" height="4" fill="#CE6C2B"/>
<rect x="8" width="4" height="4" fill="#FFF3B2"/>
<rect x="12" width="4" height="4" fill="#FCFFB8"/>
<rect x="16" width="4" height="4" fill="#FD7400"/>
<rect x="20" width="4" height="4" fill="#FD7400"/>
<rect x="24" width="4" height="4" fill="#AA3D26"/>
<rect x="28" width="4" height="4" fill="white"/>
<rect x="8" y="8" width="4" height="4" fill="#FFF3B2"/>
<rect x="12" y="8" width="4" height="4" fill="#FCFFB8"/>
<rect x="8" y="4" width="4" height="4" fill="white"/>
<rect x="12" y="4" width="4" height="4" fill="white"/>
<rect x="16" y="4" width="4" height="4" fill="#BD7B69"/>
<rect x="12" y="12" width="4" height="4" fill="#FCFFB8"/>
<rect x="12" y="28" width="4" height="4" fill="#ED763B"/>
<rect x="16" y="28" width="4" height="4" fill="#ED763B"/>
<rect x="20" y="28" width="4" height="4" fill="#F95501"/>
<rect x="16" y="8" width="4" height="4" fill="#CE6C2B"/>
<rect x="20" y="8" width="4" height="4" fill="#CE3300"/>
<rect x="24" y="8" width="4" height="4" fill="#EF510F"/>
<rect x="28" y="8" width="4" height="4" fill="#E87548"/>
<rect x="16" y="12" width="4" height="4" fill="#FFF3B2"/>
<rect x="20" y="12" width="4" height="4" fill="#FFFED4"/>
<rect x="24" y="12" width="4" height="4" fill="#FFCF56"/>
<rect x="28" y="12" width="4" height="4" fill="#FFF4DD"/>
<rect x="16" y="16" width="4" height="4" fill="#F3AF49"/>
<rect x="20" y="16" width="4" height="4" fill="#FF7D00"/>
<rect x="24" y="16" width="4" height="4" fill="#FFF9A3"/>
<rect x="12" y="24" width="4" height="4" fill="white"/>
<rect x="16" y="24" width="4" height="4" fill="white"/>
<rect x="20" y="24" width="4" height="4" fill="#FFF392"/>
<rect x="24" y="24" width="4" height="4" fill="#E65A14"/>
<rect x="20" y="4" width="4" height="4" fill="#FD7400"/>
<rect x="24" y="4" width="4" height="4" fill="#C9472D"/>
<rect x="28" y="4" width="4" height="4" fill="white"/>
<rect x="24" y="28" width="4" height="4" fill="white"/>
<rect x="28" y="28" width="4" height="4" fill="#616273"/>
<rect x="28" y="24" width="4" height="4" fill="#616273"/>
<rect x="28" y="16" width="4" height="4" fill="white"/>
<rect x="28" y="20" width="4" height="4" fill="white"/>
</g>
<defs>
<clipPath id="clip0_2_270">
<rect width="32" height="32" fill="white"/>
</clipPath>
</defs>
</svg>
