<svg width="48" height="48" viewBox="0 0 48 48" fill="none" xmlns="http://www.w3.org/2000/svg">
<g clip-path="url(#clip0_50_132)">
<rect width="48" height="48" fill="white"/>
<rect y="42" width="6" height="6" fill="black"/>
<rect x="6" y="42" width="6" height="6" fill="#988B62"/>
<rect y="36" width="6" height="6" fill="black"/>
<rect x="6" y="36" width="6" height="6" fill="#0F50A6"/>
<rect y="30" width="6" height="6" fill="black"/>
<rect x="6" y="30" width="6" height="6" fill="#002BFA"/>
<rect y="24" width="6" height="6" fill="#0C50B6"/>
<rect x="6" y="24" width="6" height="6" fill="#000521"/>
<rect y="18" width="6" height="6" fill="#1CC6F0"/>
<rect x="6" y="18" width="6" height="6" fill="#2979E1"/>
<rect y="12" width="6" height="6" fill="#1CC6F0"/>
<rect x="6" y="12" width="6" height="6" fill="#21505D"/>
<rect y="6" width="6" height="6" fill="#1CC6F0"/>
<rect x="6" y="6" width="6" height="6" fill="#000C4D"/>
<rect width="6" height="6" fill="#1CC6F0"/>
<rect x="6" width="6" height="6" fill="#062FA8"/>
<rect x="12" y="42" width="6" height="6" fill="#21505D"/>
<rect x="12" y="30" width="6" height="6" fill="#0F50A6"/>
<rect x="18" y="30" width="6" height="6" fill="#19B4C7"/>
<rect x="24" y="30" width="6" height="6" fill="#19B4C7"/>
<rect x="30" y="30" width="6" height="6" fill="#25308D"/>
<rect x="36" y="30" width="6" height="6" fill="#005DFE"/>
<rect x="12" y="36" width="6" height="6" fill="#002BFA"/>
<rect x="12" y="18" width="6" height="6" fill="#000521"/>
<rect x="12" y="24" width="6" height="6" fill="#1289C4"/>
<rect x="18" y="24" width="6" height="6" fill="#3193D4"/>
<rect x="12" width="6" height="6" fill="#000C4D"/>
<rect x="18" width="6" height="6" fill="#030047"/>
<rect x="24" width="6" height="6" fill="#028BFF"/>
<rect x="30" width="6" height="6" fill="#028BFF"/>
<rect x="36" width="6" height="6" fill="#55C2D9"/>
<rect x="42" width="6" height="6" fill="black"/>
<rect x="12" y="12" width="6" height="6" fill="#000C4D"/>
<rect x="18" y="12" width="6" height="6" fill="#030047"/>
<rect x="12" y="6" width="6" height="6" fill="black"/>
<rect x="18" y="6" width="6" height="6" fill="black"/>
<rect x="24" y="6" width="6" height="6" fill="#428496"/>
<rect x="18" y="18" width="6" height="6" fill="#030047"/>
<rect x="18" y="42" width="6" height="6" fill="#1289C4"/>
<rect x="24" y="42" width="6" height="6" fill="#1289C4"/>
<rect x="30" y="42" width="6" height="6" fill="#06AAFE"/>
<rect x="24" y="12" width="6" height="6" fill="#3193D4"/>
<rect x="30" y="12" width="6" height="6" fill="#31CCFF"/>
<rect x="36" y="12" width="6" height="6" fill="#10AEF0"/>
<rect x="42" y="12" width="6" height="6" fill="#178AB7"/>
<rect x="24" y="18" width="6" height="6" fill="#000C4D"/>
<rect x="30" y="18" width="6" height="6" fill="#00012B"/>
<rect x="36" y="18" width="6" height="6" fill="#0030A9"/>
<rect x="42" y="18" width="6" height="6" fill="#000B22"/>
<rect x="24" y="24" width="6" height="6" fill="#0C50B6"/>
<rect x="30" y="24" width="6" height="6" fill="#0082FF"/>
<rect x="36" y="24" width="6" height="6" fill="#00065C"/>
<rect x="18" y="36" width="6" height="6" fill="black"/>
<rect x="24" y="36" width="6" height="6" fill="black"/>
<rect x="30" y="36" width="6" height="6" fill="#000C6D"/>
<rect x="36" y="36" width="6" height="6" fill="#19A5EB"/>
<rect x="30" y="6" width="6" height="6" fill="#028BFF"/>
<rect x="36" y="6" width="6" height="6" fill="#36B8D2"/>
<rect x="42" y="6" width="6" height="6" fill="black"/>
<rect x="36" y="42" width="6" height="6" fill="black"/>
<rect x="42" y="42" width="6" height="6" fill="#9E9D8C"/>
<rect x="42" y="36" width="6" height="6" fill="#9E9D8C"/>
<rect x="42" y="24" width="6" height="6" fill="black"/>
<rect x="42" y="30" width="6" height="6" fill="black"/>
</g>
<defs>
<clipPath id="clip0_50_132">
<rect width="48" height="48" fill="white"/>
</clipPath>
</defs>
</svg>
